<svg id="Layer_1" data-name="Layer 1" xmlns="http://www.w3.org/2000/svg" xmlns:xlink="http://www.w3.org/1999/xlink" viewBox="0 0 1416.73 1416.73">
  <defs>
    <style>
      .cls-1 {
        fill: #0c3240;
      }

      .cls-2 {
        fill: url(#linear-gradient);
      }

      .cls-3 {
        fill: url(#linear-gradient-2);
      }

      .cls-4 {
        fill: url(#linear-gradient-3);
      }
    </style>
    <linearGradient id="linear-gradient" x1="363.13" y1="708.37" x2="1091.2" y2="708.37" gradientUnits="userSpaceOnUse">
      <stop offset="0" stop-color="#fffacd"/>
      <stop offset="0.09" stop-color="#f8efbc"/>
      <stop offset="0.27" stop-color="#e7d18f"/>
      <stop offset="0.51" stop-color="#cba247"/>
      <stop offset="0.6" stop-color="#c1912e"/>
      <stop offset="0.87" stop-color="#edd688"/>
    </linearGradient>
    <linearGradient id="linear-gradient-2" x1="608.03" y1="706.81" x2="920.39" y2="706.81" xlink:href="#linear-gradient"/>
    <linearGradient id="linear-gradient-3" x1="325.75" y1="1044.42" x2="452.04" y2="1044.42" xlink:href="#linear-gradient"/>
  </defs>
  <rect class="cls-1" width="1416.73" height="1416.73"/>
  <g>
    <path class="cls-2" d="M1085.31,634.59a34.39,34.39,0,0,0-.94-5.05,378.82,378.82,0,0,0-23-77.14c-.71-1.64-1.42-3.4-2.12-5A408.9,408.9,0,0,0,816.45,329,381,381,0,0,0,736,311.59c-1.3-.24-2.71-.35-4-.47h-.94V311c-12.37-1.06-24.5-1.64-37.22-1.64H487.15a17.92,17.92,0,0,0-17.67,14.79l-12.13,67.4-8.48,48.37-4,22.9L430.5,544.19l-.95,5-.23,1.53-13.43,75.61-.82,5L375.14,856.28,364,919.92l-.82,5.05h7.33l-.51,3.16h83.62l.94-5,8.13-45.56,1.41-8.1,41.46-234.84.94-5.05L511.51,601l8.25-47.08.23-1.53,1-5L535.42,466l10-56.47a9.53,9.53,0,0,1,.71-2.59,17.75,17.75,0,0,1,17-12.21H619c10.25-.82,20.61-1.17,31.1-1.17s20.84.35,31.09,1.17h21.43c7.07,0,14.14.12,20.85.71h.94l4,.35a299.37,299.37,0,0,1,80.44,18.08c6.17,2.31,12.22,4.87,18.19,7.57A300.23,300.23,0,0,1,950,530.45c3.35,3.87,6.62,7.82,9.82,11.81.31.51.61,1,.91,1.55-3.54-4.46-7.16-8.87-10.88-13.17,2.94,4.45,5.77,9,8.36,13.73,1.06,1.64,1.88,3.29,2.83,5a290.84,290.84,0,0,1,28.85,77.14c.48,1.66.84,3.3,1.17,5.07a299.22,299.22,0,0,1,6.13,60.58v29.24A299.08,299.08,0,0,1,921.93,920.1c-1.52,1.76-2.94,3.4-4.47,5.06a302.19,302.19,0,0,1-114.23,77.14c-3.54,1.4-7.19,2.7-10.84,3.87-1.18.47-2.37.82-3.54,1.18A301.65,301.65,0,0,1,695.69,1022H613.56l2-11.51.82-5,8.5-47.92,5.17-29.24.94-5,8.13-45.55,1.42-8.1,20.91-118.5,1.69-9.58A62.93,62.93,0,0,0,646,618a64.68,64.68,0,0,0-6.71.35c-.9-.08-1.81-.14-2.72-.19-1.49-.1-3-.16-4.52-.16a63.14,63.14,0,0,0-59.18,41,62.47,62.47,0,0,0-4,22v.39a62.15,62.15,0,0,0,8.4,30.91L550,866.44l-9.53,53.66-.82,5.06-5.2,29.22-8.58,47.92-1,5.05L522.33,1022l-.47,2.46L511.6,1083.2a18,18,0,0,0,13.75,20.54v0a18,18,0,0,0,10.86,3.61h164.3a389.53,389.53,0,0,0,257.8-96.86c1.88-1.66,3.89-3.41,5.78-5a398.51,398.51,0,0,0,65.12-77.16c1.06-1.64,2.24-3.28,3.19-5,1.64-2.7,3.4-5.4,4.93-8.21q4.68-15.25,8.12-31l.2-.4q-3.48,15.83-8.16,31.21a386.36,386.36,0,0,0,53.7-197V701.76A382.68,382.68,0,0,0,1085.31,634.59ZM963.53,547q2.22,2.85,4.4,5.75c.23.43.45.86.69,1.29-1.41-1.89-2.88-3.72-4.32-5.59Z" transform="translate(-0.11)"/>
    <path class="cls-3" d="M608,552.58l87.27,2.7a151.15,151.15,0,0,1,77.85,32.53,137,137,0,0,1,21.55,21.37.11.11,0,0,0,.12.11q9.24,6.9,17.79,14.62c.23.37.49.74.72,1.11.38.55.73,1.11,1.08,1.67a247.2,247.2,0,0,0-20.47-17.05,144.51,144.51,0,0,1,14.26,20.43,41.53,41.53,0,0,1,2.82,5,148.88,148.88,0,0,1,17.43,70.34V719c0,63.52-39.33,117.77-94.92,140.08A18.09,18.09,0,0,0,722,872.77l-9.06,50.84-.83,5a14.68,14.68,0,0,0-.23,3.17c0,11.39,10.71,20.54,22.25,17.37,2.62-.72,5.2-1.49,7.78-2.29a17.16,17.16,0,0,0,7.12-.64,241.62,241.62,0,0,0,50.34-22.09,82.23,82.23,0,0,0,8.68-5.32,241.57,241.57,0,0,0,94.69-114.67v.1c.42-1,.79-2.09,1.19-3.13.24-.64.51-1.26.75-1.89v-.06a238.66,238.66,0,0,0,15.73-85.45v-8.57a240.25,240.25,0,0,0-11.31-72.8c-.47-1.76-1.06-3.4-1.65-5a235.21,235.21,0,0,0-43.81-77.14,57.26,57.26,0,0,0-4.24-5.05A242.14,242.14,0,0,0,718.17,467.3h-.12c-1.3-.35-2.59-.47-3.89-.7-.35,0-.59-.12-.94-.12a229.71,229.71,0,0,0-35.1-2.7h-32a17.94,17.94,0,0,0-9.15,2.51A17.88,17.88,0,0,0,620.75,481L609,547.53Z" transform="translate(-0.11)"/>
    <path class="cls-4" d="M425.87,993.38a61,61,0,0,0-6.65-4.19,62.44,62.44,0,0,0-13.93-5.59,63.19,63.19,0,0,0-75.57,38.83,62.53,62.53,0,0,0-4,22v.39a61.92,61.92,0,0,0,3.71,20.86,63.33,63.33,0,0,0,69,41,61.54,61.54,0,0,0,7.67-1.66,62.9,62.9,0,0,0,19.7-111.61Z" transform="translate(-0.11)"/>
  </g>
</svg>
