<svg id="Layer_1" data-name="Layer 1" xmlns="http://www.w3.org/2000/svg" xmlns:xlink="http://www.w3.org/1999/xlink" width="101.73mm" height="24.12mm" viewBox="0 0 288.38 68.36"><defs><style>.cls-1{fill:url(#linear-gradient);}.cls-2{fill:url(#linear-gradient-2);}.cls-3{fill:url(#linear-gradient-3);}.cls-4{fill:url(#linear-gradient-4);}.cls-5{fill:url(#linear-gradient-5);}.cls-6{fill:url(#linear-gradient-6);}.cls-7{fill:url(#linear-gradient-7);}.cls-8{fill:url(#linear-gradient-8);}.cls-9{fill:url(#linear-gradient-9);}.cls-10{fill:url(#linear-gradient-10);}.cls-11{fill:url(#linear-gradient-11);}.cls-12{fill:url(#linear-gradient-12);}.cls-13{fill:url(#linear-gradient-13);}.cls-14{fill:none;}</style><linearGradient id="linear-gradient" x1="168.48" y1="33.22" x2="232.7" y2="33.22" gradientTransform="translate(0.64 -2.69) rotate(1)" gradientUnits="userSpaceOnUse"><stop offset="0.06" stop-color="#e8ce81"/><stop offset="0.49" stop-color="#c1912e"/><stop offset="0.55" stop-color="#c6993a"/><stop offset="0.65" stop-color="#d2ae5a"/><stop offset="0.78" stop-color="#e6d08d"/><stop offset="0.93" stop-color="#fffacd"/></linearGradient><linearGradient id="linear-gradient-2" x1="190.92" y1="86.68" x2="226.63" y2="86.68" gradientTransform="matrix(0.16, 0.99, -0.99, 0.16, 97.92, -179.92)" xlink:href="#linear-gradient"/><linearGradient id="linear-gradient-3" x1="178.97" y1="32.81" x2="229.81" y2="32.81" gradientTransform="matrix(0.16, 0.99, -0.99, 0.16, 97.92, -179.92)" xlink:href="#linear-gradient"/><linearGradient id="linear-gradient-4" x1="199.03" y1="20.02" x2="246.54" y2="20.02" gradientTransform="matrix(0.16, 0.99, -0.99, 0.16, 97.92, -179.92)" xlink:href="#linear-gradient"/><linearGradient id="linear-gradient-5" x1="222.11" y1="-111.25" x2="269.61" y2="-111.25" gradientTransform="matrix(0.16, 0.99, -0.99, 0.16, 97.92, -179.92)" xlink:href="#linear-gradient"/><linearGradient id="linear-gradient-6" x1="195.62" y1="-4.62" x2="239.34" y2="-4.62" gradientTransform="matrix(0.16, 0.99, -0.99, 0.16, 90.02, -181.89)" xlink:href="#linear-gradient"/><linearGradient id="linear-gradient-7" x1="256.12" y1="-71.49" x2="256.44" y2="-71.49" gradientTransform="matrix(0.16, 0.99, -0.99, 0.16, 97.92, -179.92)" xlink:href="#linear-gradient"/><linearGradient id="linear-gradient-8" x1="210.42" y1="-141.97" x2="220.73" y2="-141.97" gradientTransform="translate(19.56 -30.57) rotate(44.03)" xlink:href="#linear-gradient"/><linearGradient id="linear-gradient-9" x1="222.3" y1="-145.69" x2="232.37" y2="-145.69" gradientTransform="translate(19.56 -30.57) rotate(44.03)" xlink:href="#linear-gradient"/><linearGradient id="linear-gradient-10" x1="220.3" y1="-134.53" x2="230.37" y2="-134.53" gradientTransform="translate(19.56 -30.57) rotate(44.03)" xlink:href="#linear-gradient"/><linearGradient id="linear-gradient-11" x1="208.22" y1="-45.89" x2="218.3" y2="-45.89" gradientTransform="translate(10.79 -118.04) rotate(52.99)" xlink:href="#linear-gradient"/><linearGradient id="linear-gradient-12" x1="214.31" y1="-36.34" x2="224.39" y2="-36.34" gradientTransform="translate(-19.95 -87.39) rotate(42.35)" xlink:href="#linear-gradient"/><linearGradient id="linear-gradient-13" x1="237.23" y1="-139.08" x2="262.75" y2="-139.08" gradientTransform="matrix(0.16, 0.99, -0.99, 0.16, 97.92, -179.92)" xlink:href="#linear-gradient"/></defs><path class="cls-1" d="M232.27,53.12l-.27-1c-.08-.19-.13-.35-.22-.53A4.76,4.76,0,0,0,230,49.46L224,44.85v0l-.16-.11L210.36,34.21l14.39-8.75.35-10.08-.58,0-21,13.52-4.44,2.85-.17,4.5v.46l10.34,7.82-12.36-.19.34-19.23a1.41,1.41,0,0,0-.35.05,9.88,9.88,0,0,0-1.39-.6,9.28,9.28,0,0,0-3.32-.48,8.11,8.11,0,0,0-1.4.15,7.59,7.59,0,0,0-1.69.48,6.78,6.78,0,0,0-2.43,1.6l-9.51,9.92-6.37,5.58a7.18,7.18,0,0,0-1.71,2.37,8.76,8.76,0,0,0-.75,3.07,9.33,9.33,0,0,0,.32,3.32,8.69,8.69,0,0,0,.54,1.41c0,.11,0,.24,0,.35l.22,0,2.45.06,9.91.26h0a10.85,10.85,0,0,0,1.64.16l3.31,0,1.94,0,3.17,0L195,53l2,0,28.49.44,5.69.09,1.19,0Zm-63.52-7.63.07-.1.12.41C168.87,45.71,168.82,45.6,168.75,45.49Zm6.66-1.33a.34.34,0,0,1,0-.15h0Zm12.84,0h-.64l-3.45,0-2.67-.05h0l.05-.06,1.54-1.59.44-.44,4.84-5.06Z" transform="translate(-7.89 -1.97)"/><path class="cls-2" d="M14.18,56.62a9,9,0,0,0,3.1-.48,4.82,4.82,0,0,0,2.35-1.6l3.57-3.72,3.25-3.39a5.27,5.27,0,0,0,.9,1.24A8.07,8.07,0,0,0,33.27,51l3.31,0v0L65,51.57l-7.46-.16,0-.06.85,0,6.64.15H66l5.56.12,11.37.24.06-.08L85.5,48.7,84.14,45v-.08l-4-11.06L80,33.38l-.13-.33-1.31-3.72-1.18-3.24-.42-.29-5.18,6.46v0l.52,1.3a4.36,4.36,0,0,0-.45.49l-1.25,1.52-5.91,7.18-2.29,0,14.8-18.51a6.87,6.87,0,0,0-2.57-1A7.83,7.83,0,0,0,72,23.1a7.56,7.56,0,0,0-2.32.72,5.71,5.71,0,0,0-1.76,1.4L54,42.62h0l-7.22-.1.34-19.21c-.12,0-.25,0-.36,0a7.34,7.34,0,0,0-1.39-.59,9.71,9.71,0,0,0-3.31-.49,9.1,9.1,0,0,0-3.09.63,7,7,0,0,0-2.44,1.62l-17.26,18-5,5.18v0L7.89,54.32a10.38,10.38,0,0,0,3,1.69A9.4,9.4,0,0,0,14.18,56.62Zm58.9-14.84,1.64-2,.21.52,0,0,.69,1.77,1.06,2.65,0,0v.06h-.07l-3.91-.07a7.54,7.54,0,0,0-1.34-.95Zm-41.67.5,6.87-7.16-.13,7.28-6.76-.1Z" transform="translate(-7.89 -1.97)"/><path class="cls-3" d="M97.43,51.5a15.4,15.4,0,0,0,3.84.71L102,10a7.94,7.94,0,0,0-.56-3.25,9.16,9.16,0,0,0-1.61-2.49A6.26,6.26,0,0,0,97.3,2.69,15.36,15.36,0,0,0,93.46,2l-.73,42a8.06,8.06,0,0,0,2.16,6A6.39,6.39,0,0,0,97.43,51.5Z" transform="translate(-7.89 -1.97)"/><path class="cls-4" d="M114.32,65.43a9.78,9.78,0,0,0,2-2.46,5,5,0,0,0,.63-2.78l.73-41.66a9.13,9.13,0,0,0-3.48.84,9.81,9.81,0,0,0-2.76,1.9,9.11,9.11,0,0,0-1.83,2.56,6.85,6.85,0,0,0-.69,2.84L108.15,68a10,10,0,0,0,3.31-.79A9.82,9.82,0,0,0,114.32,65.43Z" transform="translate(-7.89 -1.97)"/><path class="cls-5" d="M247.58,67.75a9.7,9.7,0,0,0,2-2.46,4.93,4.93,0,0,0,.63-2.77l.15-8.49,1.57,0,.13-7.52-1.57,0,.44-25.66a9.37,9.37,0,0,0-3.48.85,9.69,9.69,0,0,0-2.75,1.9,9,9,0,0,0-1.83,2.56,6.87,6.87,0,0,0-.7,2.84l-.72,41.34a10.06,10.06,0,0,0,3.32-.79A9.67,9.67,0,0,0,247.58,67.75Z" transform="translate(-7.89 -1.97)"/><polygon class="cls-6" points="144.42 37.33 144.52 31.76 117.62 11.91 116.97 11.9 116.77 23.22 132.77 34.31 116.39 44.89 116.2 56.17 116.85 56.18 144.42 37.33"/><path class="cls-7" d="M208.29,62c0,.11,0,.22.05.32l.32-.35Z" transform="translate(-7.89 -1.97)"/><path class="cls-8" d="M273.78,22.39a3.52,3.52,0,0,0,1.55-.42,5.2,5.2,0,0,0,2.89-3.92,5.3,5.3,0,0,0-1.06-4,4.65,4.65,0,0,0-3.24-1.92,5.15,5.15,0,0,0-3.84,1,4.62,4.62,0,0,0-1.93,3,5.45,5.45,0,0,0,5.63,6.25Z" transform="translate(-7.89 -1.97)"/><path class="cls-9" d="M280,25.59a5,5,0,0,0,3.35,2.1,5.18,5.18,0,0,0,4-1.08,4.67,4.67,0,0,0,1.95-3.22,5,5,0,0,0-1-3.81A4.65,4.65,0,0,0,285,17.52a5,5,0,0,0-3.57,1,5.59,5.59,0,0,0-2.35,3.32A4.6,4.6,0,0,0,280,25.59Z" transform="translate(-7.89 -1.97)"/><path class="cls-10" d="M277.94,33.45a4.87,4.87,0,0,0,2.1-3.33,5,5,0,0,0-1-3.81,4.65,4.65,0,0,0-3.28-2.06,5.25,5.25,0,0,0-3.72,1.08A4.6,4.6,0,0,0,271,32.18a5.2,5.2,0,0,0,3.26,2.17A4.54,4.54,0,0,0,277.94,33.45Z" transform="translate(-7.89 -1.97)"/><path class="cls-11" d="M178.25,29a4.68,4.68,0,0,0,2.42-2.87,5,5,0,0,0-.39-3.92,4.6,4.6,0,0,0-2.91-2.55,5,5,0,0,0-3.68.41A5.62,5.62,0,0,0,170.85,23a4.59,4.59,0,0,0,.32,3.87,5,5,0,0,0,3,2.6A5.26,5.26,0,0,0,178.25,29Z" transform="translate(-7.89 -1.97)"/><path class="cls-12" d="M169.62,37.58a4.86,4.86,0,0,0,2-3.38,5,5,0,0,0-1.1-3.78,4.68,4.68,0,0,0-3.34-2,5.26,5.26,0,0,0-3.69,1.2,4.6,4.6,0,0,0-.88,6.88,5.22,5.22,0,0,0,3.32,2.06A4.48,4.48,0,0,0,169.62,37.58Z" transform="translate(-7.89 -1.97)"/><path class="cls-13" d="M295.86,53.49c0-.07,0-.16,0-.24A1.11,1.11,0,0,0,296,53l.33-18.84a.17.17,0,0,0-.19-.17,14.89,14.89,0,0,0-3.11.76,9.31,9.31,0,0,0-2.57,1.5,7.13,7.13,0,0,0-1.81,2.42c-.11.26-.21.51-.29.75h0l-.1,5.55c0,.37,0,.74,0,1.07s0,.74,0,1.14l-6-.1a.16.16,0,0,1-.15-.15l.13-7.61h0l.1-5.4a.17.17,0,0,0-.19-.17,14.89,14.89,0,0,0-3.11.76,9.31,9.31,0,0,0-2.57,1.5,7.13,7.13,0,0,0-1.81,2.42c-.11.26-.21.51-.29.75h0l-.1,7.61a.14.14,0,0,1-.15.15l-6.67-.12a.14.14,0,0,1-.14-.15l.22-13a.17.17,0,0,0-.18-.17,14.73,14.73,0,0,0-3.11.76,9.31,9.31,0,0,0-2.57,1.5,7,7,0,0,0-2.1,3.17A7.05,7.05,0,0,0,259.3,41l-.09,5.49a.17.17,0,0,1-.15.14l-7-.12-.13,7.52,43.94.77Z" transform="translate(-7.89 -1.97)"/><path class="cls-14" d="M152.09,36.23v-.15h0A.66.66,0,0,0,152.09,36.23Z" transform="translate(-7.89 -1.97)"/><path class="cls-14" d="M152,36c.08.11.13.22.21.32l-.13-.41Z" transform="translate(-7.89 -1.97)"/><polygon class="cls-14" points="142.39 36.13 140.88 37.75 140.83 37.8 140.81 37.82 143.48 37.82 146.93 37.8 147.57 37.8 147.57 30.54 142.82 35.68 142.39 36.13"/></svg>